<?xml version="1.0" encoding="UTF-8" standalone="no"?>
<!-- Created with Inkscape (http://www.inkscape.org/) -->

<svg
   xmlns:dc="http://purl.org/dc/elements/1.1/"
   xmlns:cc="http://creativecommons.org/ns#"
   xmlns:rdf="http://www.w3.org/1999/02/22-rdf-syntax-ns#"
   xmlns:svg="http://www.w3.org/2000/svg"
   xmlns="http://www.w3.org/2000/svg"
   xmlns:sodipodi="http://sodipodi.sourceforge.net/DTD/sodipodi-0.dtd"
   xmlns:inkscape="http://www.inkscape.org/namespaces/inkscape"
   id="svg2985"
   version="1.1"
   inkscape:version="0.92.4 (5da689c313, 2019-01-14)"
   width="10cm"
   height="10cm"
   xml:space="preserve"
   sodipodi:docname="jdis.svg"><metadata
     id="metadata2991"><rdf:RDF><cc:Work
         rdf:about=""><dc:format>image/svg+xml</dc:format><dc:type
           rdf:resource="http://purl.org/dc/dcmitype/StillImage" /><dc:title></dc:title></cc:Work></rdf:RDF></metadata><defs
     id="defs2989"><clipPath
       clipPathUnits="userSpaceOnUse"
       id="clipPath3001"><path
         d="M 0,144 H 288 V 0 H 0 Z"
         id="path3003"
         inkscape:connector-curvature="0" /></clipPath></defs><sodipodi:namedview
     pagecolor="#ffffff"
     bordercolor="#666666"
     borderopacity="1"
     objecttolerance="10"
     gridtolerance="10"
     guidetolerance="10"
     inkscape:pageopacity="0"
     inkscape:pageshadow="2"
     inkscape:window-width="1920"
     inkscape:window-height="1017"
     id="namedview2987"
     showgrid="false"
     inkscape:zoom="1.1527778"
     inkscape:cx="134.7067"
     inkscape:cy="114.02009"
     inkscape:window-x="-8"
     inkscape:window-y="-8"
     inkscape:window-maximized="1"
     inkscape:current-layer="g2993"
     units="cm" /><g
     id="g2993"
     inkscape:groupmode="layer"
     inkscape:label="JDIS Final Logo contour blanc"
     transform="matrix(1.25,0,0,-1.25,0,377.95277)"><g
       id="g2997"
       transform="matrix(3.1648201,0,0,3.1648201,-316.37851,-76.892074)"><g
         id="g2999"
         clip-path="url(#clipPath3001)"><g
           id="g3009"
           transform="translate(193.0146,22.7373)" /><g
           id="g3013"
           transform="translate(181.3379,46.5713)"><path
             d="M 0,0 C -4.463,-5.452 -10.158,-9.765 -16.617,-12.58"
             style="fill:none;stroke:#39a461;stroke-width:1.10000002;stroke-linecap:round;stroke-linejoin:round;stroke-miterlimit:2.61299992;stroke-dasharray:none;stroke-opacity:1"
             id="path3015"
             inkscape:connector-curvature="0" /></g><g
           id="g3017"
           transform="translate(190.1162,64.1797)"><path
             d="m 0,0 c -0.971,-3.982 -2.487,-7.811 -4.508,-11.376 -0.498,-0.879 -1.026,-1.741 -1.583,-2.584"
             style="fill:none;stroke:#39a461;stroke-width:1.10000002;stroke-linecap:round;stroke-linejoin:round;stroke-miterlimit:2.61299992;stroke-dasharray:none;stroke-opacity:1"
             id="path3019"
             inkscape:connector-curvature="0" /></g><g
           id="g3021"
           transform="translate(190.9385,80.9292)"><path
             d="M 0,0 C 0.627,-4.418 0.584,-8.905 -0.127,-13.311"
             style="fill:none;stroke:#39a461;stroke-width:1.10000002;stroke-linecap:round;stroke-linejoin:round;stroke-miterlimit:2.61299992;stroke-dasharray:none;stroke-opacity:1"
             id="path3023"
             inkscape:connector-curvature="0" /></g><g
           id="g3025"
           transform="translate(185.3086,97.1006)"><path
             d="M 0,0 C 1.944,-3.325 3.447,-6.888 4.472,-10.601"
             style="fill:none;stroke:#39a461;stroke-width:1.10000002;stroke-linecap:round;stroke-linejoin:round;stroke-miterlimit:2.61299992;stroke-dasharray:none;stroke-opacity:1"
             id="path3027"
             inkscape:connector-curvature="0" /></g><g
           id="g3029"
           transform="translate(169.2891,38.9053)"><path
             d="M 0,0 C -2.439,-1.521 -5.027,-2.788 -7.726,-3.782"
             style="fill:none;stroke:#39a461;stroke-width:1.10000002;stroke-linecap:round;stroke-linejoin:round;stroke-miterlimit:2.61299992;stroke-dasharray:none;stroke-opacity:1"
             id="path3031"
             inkscape:connector-curvature="0" /></g><g
           id="g3033"
           transform="translate(188.5947,67.8652)"><path
             d="m 0,0 c -0.806,-4.908 -2.473,-9.636 -4.925,-13.964 -1.195,-2.107 -2.569,-4.109 -4.107,-5.981"
             style="fill:none;stroke:#39a461;stroke-width:1.10000002;stroke-linecap:round;stroke-linejoin:round;stroke-miterlimit:2.61299992;stroke-dasharray:none;stroke-opacity:1"
             id="path3035"
             inkscape:connector-curvature="0" /></g><g
           id="g3037"
           transform="translate(183.4375,95.8867)"><path
             d="M 0,0 C 3.94,-6.779 5.913,-14.522 5.697,-22.36"
             style="fill:none;stroke:#39a461;stroke-width:1.10000002;stroke-linecap:round;stroke-linejoin:round;stroke-miterlimit:2.61299992;stroke-dasharray:none;stroke-opacity:1"
             id="path3039"
             inkscape:connector-curvature="0" /></g><g
           id="g3041"
           transform="translate(172.2646,43.7715)"><path
             d="M 0,0 C -1.265,-1.034 -2.591,-1.989 -3.972,-2.86"
             style="fill:none;stroke:#39a461;stroke-width:1.10000002;stroke-linecap:round;stroke-linejoin:round;stroke-miterlimit:2.61299992;stroke-dasharray:none;stroke-opacity:1"
             id="path3043"
             inkscape:connector-curvature="0" /></g><g
           id="g3045"
           transform="translate(186.7568,78.3242)"><path
             d="m 0,0 c 0.74,-8.105 -1.014,-16.242 -5.026,-23.324 -1.719,-3.035 -3.829,-5.832 -6.277,-8.319"
             style="fill:none;stroke:#39a461;stroke-width:1.10000002;stroke-linecap:round;stroke-linejoin:round;stroke-miterlimit:2.61299992;stroke-dasharray:none;stroke-opacity:1"
             id="path3047"
             inkscape:connector-curvature="0" /></g><g
           id="g3049"
           transform="translate(181.5127,59.5322)"><path
             d="M 0,0 C -0.515,-1.173 -1.089,-2.319 -1.72,-3.434 -1.789,-3.555 -1.858,-3.675 -1.928,-3.795"
             style="fill:none;stroke:#39a461;stroke-width:1.10000002;stroke-linecap:round;stroke-linejoin:round;stroke-miterlimit:2.61299992;stroke-dasharray:none;stroke-opacity:1"
             id="path3051"
             inkscape:connector-curvature="0" /></g><g
           id="g3053"
           transform="translate(165.1465,107.7427)"><path
             d="M 0,0 C 0.143,-0.078 0.285,-0.158 0.427,-0.238 14.335,-8.12 21.764,-23.913 18.965,-39.652"
             style="fill:none;stroke:#39a461;stroke-width:1.10000002;stroke-linecap:round;stroke-linejoin:round;stroke-miterlimit:2.61299992;stroke-dasharray:none;stroke-opacity:1"
             id="path3055"
             inkscape:connector-curvature="0" /></g><g
           id="g3057"
           transform="translate(176.875,55.5732)"><path
             d="M 0,0 C -4.298,-6.721 -10.735,-11.798 -18.273,-14.41"
             style="fill:none;stroke:#39a461;stroke-width:1.10000002;stroke-linecap:round;stroke-linejoin:round;stroke-miterlimit:2.61299992;stroke-dasharray:none;stroke-opacity:1"
             id="path3059"
             inkscape:connector-curvature="0" /></g><g
           id="g3061"
           transform="translate(181.873,81.1489)"><path
             d="M 0,0 C 1.366,-7.381 0.356,-15.005 -2.885,-21.777"
             style="fill:none;stroke:#39a461;stroke-width:1.10000002;stroke-linecap:round;stroke-linejoin:round;stroke-miterlimit:2.61299992;stroke-dasharray:none;stroke-opacity:1"
             id="path3063"
             inkscape:connector-curvature="0" /></g><g
           id="g3065"
           transform="translate(176.917,60.207)"><path
             d="m 0,0 c -0.312,-0.647 -0.647,-1.285 -1.002,-1.911 -2.428,-4.285 -5.777,-7.977 -9.806,-10.81"
             style="fill:none;stroke:#39a461;stroke-width:1.10000002;stroke-linecap:round;stroke-linejoin:round;stroke-miterlimit:2.61299992;stroke-dasharray:none;stroke-opacity:1"
             id="path3067"
             inkscape:connector-curvature="0" /></g><g
           id="g3069"
           transform="translate(180.2051,76.168)"><path
             d="M 0,0 C 0.177,-3.979 -0.363,-7.958 -1.594,-11.747"
             style="fill:none;stroke:#39a461;stroke-width:1.10000002;stroke-linecap:round;stroke-linejoin:round;stroke-miterlimit:2.61299992;stroke-dasharray:none;stroke-opacity:1"
             id="path3071"
             inkscape:connector-curvature="0" /></g><g
           id="g3073"
           transform="translate(174.6807,93.0981)"><path
             d="M 0,0 C 2.499,-3.762 4.206,-7.993 5.017,-12.436"
             style="fill:none;stroke:#39a461;stroke-width:1.10000002;stroke-linecap:round;stroke-linejoin:round;stroke-miterlimit:2.61299992;stroke-dasharray:none;stroke-opacity:1"
             id="path3075"
             inkscape:connector-curvature="0" /></g><g
           id="g3077"
           transform="translate(162.0146,101.8364)"><path
             d="M 0,0 C 0.088,-0.049 0.176,-0.098 0.263,-0.148 15.173,-8.596 20.41,-27.532 11.962,-42.442 8.731,-48.143 3.778,-52.676 -2.187,-55.389"
             style="fill:none;stroke:#39a461;stroke-width:1.10000002;stroke-linecap:round;stroke-linejoin:round;stroke-miterlimit:2.61299992;stroke-dasharray:none;stroke-opacity:1"
             id="path3079"
             inkscape:connector-curvature="0" /></g><g
           id="g3081"
           transform="translate(175.335,69.6416)"><path
             d="m 0,0 c -0.572,-3.214 -1.687,-6.308 -3.297,-9.148 -1.399,-2.469 -3.154,-4.717 -5.21,-6.672"
             style="fill:none;stroke:#39a461;stroke-width:1.10000002;stroke-linecap:round;stroke-linejoin:round;stroke-miterlimit:2.61299992;stroke-dasharray:none;stroke-opacity:1"
             id="path3083"
             inkscape:connector-curvature="0" /></g><g
           id="g3085"
           transform="translate(173.0244,79.9648)"><path
             d="m 0,0 c 1.271,-6.277 0.232,-12.802 -2.925,-18.373 -3.117,-5.5 -8.092,-9.709 -14.033,-11.871"
             style="fill:none;stroke:#39a461;stroke-width:1.10000002;stroke-linecap:round;stroke-linejoin:round;stroke-miterlimit:2.61299992;stroke-dasharray:none;stroke-opacity:1"
             id="path3087"
             inkscape:connector-curvature="0" /></g><g
           id="g3089"
           transform="translate(163.8682,95.208)"><path
             d="M 0,0 C 3.583,-2.949 6.331,-6.785 7.971,-11.126"
             style="fill:none;stroke:#39a461;stroke-width:1.10000002;stroke-linecap:round;stroke-linejoin:round;stroke-miterlimit:2.61299992;stroke-dasharray:none;stroke-opacity:1"
             id="path3091"
             inkscape:connector-curvature="0" /></g><g
           id="g3093"
           transform="translate(162.4727,93.4707)"><path
             d="m 0,0 c 9.115,-7.52 11.514,-20.5 5.687,-30.78 -0.341,-0.606 -0.71,-1.196 -1.104,-1.77"
             style="fill:none;stroke:#39a461;stroke-width:1.10000002;stroke-linecap:round;stroke-linejoin:round;stroke-miterlimit:2.61299992;stroke-dasharray:none;stroke-opacity:1"
             id="path3095"
             inkscape:connector-curvature="0" /></g><g
           id="g3097"
           transform="translate(162.4697,93.4624)"><path
             d="M 0,0 1.362,1.721"
             style="fill:none;stroke:#39a461;stroke-width:1.10000002;stroke-linecap:round;stroke-linejoin:round;stroke-miterlimit:2.61299992;stroke-dasharray:none;stroke-opacity:1"
             id="path3099"
             inkscape:connector-curvature="0" /></g><g
           id="g3101"
           transform="translate(175.3262,69.6514)"><path
             d="M 0,0 2.251,-0.182"
             style="fill:none;stroke:#39a461;stroke-width:1.10000002;stroke-linecap:round;stroke-linejoin:round;stroke-miterlimit:2.61299992;stroke-dasharray:none;stroke-opacity:1"
             id="path3103"
             inkscape:connector-curvature="0" /></g><g
           id="g3105"
           transform="translate(176.9258,60.2119)"><path
             d="M 0,0 2.053,-0.815"
             style="fill:none;stroke:#39a461;stroke-width:1.10000002;stroke-linecap:round;stroke-linejoin:round;stroke-miterlimit:2.61299992;stroke-dasharray:none;stroke-opacity:1"
             id="path3107"
             inkscape:connector-curvature="0" /></g><g
           id="g3109"
           transform="translate(179.6758,80.688)"><path
             d="M 0,0 2.192,0.474"
             style="fill:none;stroke:#39a461;stroke-width:1.10000002;stroke-linecap:round;stroke-linejoin:round;stroke-miterlimit:2.61299992;stroke-dasharray:none;stroke-opacity:1"
             id="path3111"
             inkscape:connector-curvature="0" /></g><g
           id="g3113"
           transform="translate(181.5176,59.5615)"><path
             d="M 0,0 2.037,-0.923"
             style="fill:none;stroke:#39a461;stroke-width:1.10000002;stroke-linecap:round;stroke-linejoin:round;stroke-miterlimit:2.61299992;stroke-dasharray:none;stroke-opacity:1"
             id="path3115"
             inkscape:connector-curvature="0" /></g><g
           id="g3117"
           transform="translate(168.3125,40.9814)"><path
             d="M 0,0 1.048,-1.996"
             style="fill:none;stroke:#39a461;stroke-width:1.10000002;stroke-linecap:round;stroke-linejoin:round;stroke-miterlimit:2.61299992;stroke-dasharray:none;stroke-opacity:1"
             id="path3119"
             inkscape:connector-curvature="0" /></g><g
           id="g3121"
           transform="translate(179.5518,47.9053)"><path
             d="M 0,0 1.786,-1.315"
             style="fill:none;stroke:#39a461;stroke-width:1.10000002;stroke-linecap:round;stroke-linejoin:round;stroke-miterlimit:2.61299992;stroke-dasharray:none;stroke-opacity:1"
             id="path3123"
             inkscape:connector-curvature="0" /></g><g
           id="g3125"
           transform="translate(188.5986,67.8535)"><path
             d="M 0,0 2.235,-0.25"
             style="fill:none;stroke:#39a461;stroke-width:1.10000002;stroke-linecap:round;stroke-linejoin:round;stroke-miterlimit:2.61299992;stroke-dasharray:none;stroke-opacity:1"
             id="path3127"
             inkscape:connector-curvature="0" /></g><g
           id="g3129"
           transform="translate(186.7676,78.3647)"><path
             d="M 0,0 2.193,0.334"
             style="fill:none;stroke:#39a461;stroke-width:1.10000002;stroke-linecap:round;stroke-linejoin:round;stroke-miterlimit:2.61299992;stroke-dasharray:none;stroke-opacity:1"
             id="path3131"
             inkscape:connector-curvature="0" /></g><g
           id="g3133"
           transform="translate(183.4395,95.8682)"><path
             d="M 0,0 1.867,1.216"
             style="fill:none;stroke:#39a461;stroke-width:1.10000002;stroke-linecap:round;stroke-linejoin:round;stroke-miterlimit:2.61299992;stroke-dasharray:none;stroke-opacity:1"
             id="path3135"
             inkscape:connector-curvature="0" /></g><g
           id="g3137"
           transform="translate(166.46,114.3975)"><path
             d="M 0,0 C 6.422,-2.899 12.062,-7.285 16.452,-12.795"
             style="fill:none;stroke:#39a461;stroke-width:1.10000002;stroke-linecap:round;stroke-linejoin:round;stroke-miterlimit:2.61299992;stroke-dasharray:none;stroke-opacity:1"
             id="path3139"
             inkscape:connector-curvature="0" /></g><g
           id="g3141"
           transform="translate(147.1797,118.3193)"><path
             d="m 0,0 c 4.098,0.093 8.188,-0.381 12.155,-1.41 0.979,-0.254 1.948,-0.541 2.906,-0.86"
             style="fill:none;stroke:#39a461;stroke-width:1.10000002;stroke-linecap:round;stroke-linejoin:round;stroke-miterlimit:2.61299992;stroke-dasharray:none;stroke-opacity:1"
             id="path3143"
             inkscape:connector-curvature="0" /></g><g
           id="g3145"
           transform="translate(130.7886,114.7783)"><path
             d="M 0,0 C 4.105,1.749 8.451,2.87 12.89,3.323"
             style="fill:none;stroke:#39a461;stroke-width:1.10000002;stroke-linecap:round;stroke-linejoin:round;stroke-miterlimit:2.61299992;stroke-dasharray:none;stroke-opacity:1"
             id="path3147"
             inkscape:connector-curvature="0" /></g><g
           id="g3149"
           transform="translate(116.625,105.1553)"><path
             d="M 0,0 C 2.708,2.738 5.762,5.112 9.083,7.062"
             style="fill:none;stroke:#39a461;stroke-width:1.10000002;stroke-linecap:round;stroke-linejoin:round;stroke-miterlimit:2.61299992;stroke-dasharray:none;stroke-opacity:1"
             id="path3151"
             inkscape:connector-curvature="0" /></g><g
           id="g3153"
           transform="translate(176.9834,104.7432)"><path
             d="M 0,0 C 2.101,-1.963 3.994,-4.135 5.652,-6.483"
             style="fill:none;stroke:#39a461;stroke-width:1.10000002;stroke-linecap:round;stroke-linejoin:round;stroke-miterlimit:2.61299992;stroke-dasharray:none;stroke-opacity:1"
             id="path3155"
             inkscape:connector-curvature="0" /></g><g
           id="g3157"
           transform="translate(144.0142,115.895)"><path
             d="m 0,0 c 4.95,0.493 9.947,0.106 14.762,-1.143 2.345,-0.608 4.634,-1.417 6.841,-2.419"
             style="fill:none;stroke:#39a461;stroke-width:1.10000002;stroke-linecap:round;stroke-linejoin:round;stroke-miterlimit:2.61299992;stroke-dasharray:none;stroke-opacity:1"
             id="path3159"
             inkscape:connector-curvature="0" /></g><g
           id="g3161"
           transform="translate(118.2822,103.6621)"><path
             d="M 0,0 C 5.528,5.561 12.496,9.47 20.124,11.29"
             style="fill:none;stroke:#39a461;stroke-width:1.10000002;stroke-linecap:round;stroke-linejoin:round;stroke-miterlimit:2.61299992;stroke-dasharray:none;stroke-opacity:1"
             id="path3163"
             inkscape:connector-curvature="0" /></g><g
           id="g3165"
           transform="translate(171.5137,106.3579)"><path
             d="M 0,0 C 1.325,-0.954 2.591,-1.987 3.79,-3.096"
             style="fill:none;stroke:#39a461;stroke-width:1.10000002;stroke-linecap:round;stroke-linejoin:round;stroke-miterlimit:2.61299992;stroke-dasharray:none;stroke-opacity:1"
             id="path3167"
             inkscape:connector-curvature="0" /></g><g
           id="g3169"
           transform="translate(134.3867,111.4136)"><path
             d="m 0,0 c 7.638,2.813 15.952,3.225 23.83,1.182 3.377,-0.876 6.625,-2.19 9.66,-3.91"
             style="fill:none;stroke:#39a461;stroke-width:1.10000002;stroke-linecap:round;stroke-linejoin:round;stroke-miterlimit:2.61299992;stroke-dasharray:none;stroke-opacity:1"
             id="path3171"
             inkscape:connector-curvature="0" /></g><g
           id="g3173"
           transform="translate(153.8955,111.2119)"><path
             d="M 0,0 C 1.267,-0.194 2.522,-0.452 3.762,-0.773 3.896,-0.808 4.03,-0.844 4.165,-0.88"
             style="fill:none;stroke:#39a461;stroke-width:1.10000002;stroke-linecap:round;stroke-linejoin:round;stroke-miterlimit:2.61299992;stroke-dasharray:none;stroke-opacity:1"
             id="path3175"
             inkscape:connector-curvature="0" /></g><g
           id="g3177"
           transform="translate(111.564,82.9253)"><path
             d="M 0,0 C 0.039,0.158 0.079,0.316 0.12,0.474 4.133,15.948 17.465,27.211 33.393,28.582"
             style="fill:none;stroke:#39a461;stroke-width:1.10000002;stroke-linecap:round;stroke-linejoin:round;stroke-miterlimit:2.61299992;stroke-dasharray:none;stroke-opacity:1"
             id="path3179"
             inkscape:connector-curvature="0" /></g><g
           id="g3181"
           transform="translate(159.1494,108.0537)"><path
             d="M 0,0 C 7.522,-2.656 13.932,-7.77 18.19,-14.516"
             style="fill:none;stroke:#39a461;stroke-width:1.10000002;stroke-linecap:round;stroke-linejoin:round;stroke-miterlimit:2.61299992;stroke-dasharray:none;stroke-opacity:1"
             id="path3183"
             inkscape:connector-curvature="0" /></g><g
           id="g3185"
           transform="translate(132.9224,105.9653)"><path
             d="M 0,0 C 6.776,3.23 14.402,4.228 21.781,2.85"
             style="fill:none;stroke:#39a461;stroke-width:1.10000002;stroke-linecap:round;stroke-linejoin:round;stroke-miterlimit:2.61299992;stroke-dasharray:none;stroke-opacity:1"
             id="path3187"
             inkscape:connector-curvature="0" /></g><g
           id="g3189"
           transform="translate(154.4336,106.5986)"><path
             d="M 0,0 C 0.707,-0.135 1.408,-0.293 2.105,-0.474 6.872,-1.71 11.306,-3.989 15.084,-7.147"
             style="fill:none;stroke:#39a461;stroke-width:1.10000002;stroke-linecap:round;stroke-linejoin:round;stroke-miterlimit:2.61299992;stroke-dasharray:none;stroke-opacity:1"
             id="path3191"
             inkscape:connector-curvature="0" /></g><g
           id="g3193"
           transform="translate(138.165,105.6431)"><path
             d="M 0,0 C 3.799,1.201 7.781,1.709 11.76,1.501"
             style="fill:none;stroke:#39a461;stroke-width:1.10000002;stroke-linecap:round;stroke-linejoin:round;stroke-miterlimit:2.61299992;stroke-dasharray:none;stroke-opacity:1"
             id="path3195"
             inkscape:connector-curvature="0" /></g><g
           id="g3197"
           transform="translate(123.2422,95.9243)"><path
             d="M 0,0 C 2.986,3.388 6.632,6.132 10.713,8.065"
             style="fill:none;stroke:#39a461;stroke-width:1.10000002;stroke-linecap:round;stroke-linejoin:round;stroke-miterlimit:2.61299992;stroke-dasharray:none;stroke-opacity:1"
             id="path3199"
             inkscape:connector-curvature="0" /></g><g
           id="g3201"
           transform="translate(118.0801,81.4287)"><path
             d="m 0,0 c 0.024,0.098 0.049,0.195 0.074,0.292 4.302,16.588 21.237,26.549 37.825,22.248 0.728,-0.189 1.446,-0.404 2.154,-0.643"
             style="fill:none;stroke:#39a461;stroke-width:1.10000002;stroke-linecap:round;stroke-linejoin:round;stroke-miterlimit:2.61299992;stroke-dasharray:none;stroke-opacity:1"
             id="path3203"
             inkscape:connector-curvature="0" /></g><g
           id="g3205"
           transform="translate(145.7295,102.6279)"><path
             d="m 0,0 c 3.253,0.279 6.53,0.003 9.69,-0.817 2.747,-0.712 5.373,-1.826 7.793,-3.306"
             style="fill:none;stroke:#39a461;stroke-width:1.10000002;stroke-linecap:round;stroke-linejoin:round;stroke-miterlimit:2.61299992;stroke-dasharray:none;stroke-opacity:1"
             id="path3207"
             inkscape:connector-curvature="0" /></g><g
           id="g3209"
           transform="translate(136.3564,97.7246)"><path
             d="m 0,0 c 5.734,2.852 12.305,3.537 18.504,1.93 2.391,-0.62 4.664,-1.565 6.763,-2.795"
             style="fill:none;stroke:#39a461;stroke-width:1.10000002;stroke-linecap:round;stroke-linejoin:round;stroke-miterlimit:2.61299992;stroke-dasharray:none;stroke-opacity:1"
             id="path3211"
             inkscape:connector-curvature="0" /></g><g
           id="g3213"
           transform="translate(124.002,84.9351)"><path
             d="M 0,0 C 1.921,4.224 4.916,7.871 8.684,10.578"
             style="fill:none;stroke:#39a461;stroke-width:1.10000002;stroke-linecap:round;stroke-linejoin:round;stroke-miterlimit:2.61299992;stroke-dasharray:none;stroke-opacity:1"
             id="path3215"
             inkscape:connector-curvature="0" /></g><g
           id="g3217"
           transform="translate(126.0415,84.0366)"><path
             d="m 0,0 c 4.905,10.75 16.821,16.427 28.26,13.46 0.673,-0.174 1.339,-0.377 1.994,-0.609"
             style="fill:none;stroke:#39a461;stroke-width:1.10000002;stroke-linecap:round;stroke-linejoin:round;stroke-miterlimit:2.61299992;stroke-dasharray:none;stroke-opacity:1"
             id="path3219"
             inkscape:connector-curvature="0" /></g><g
           id="g3221"
           transform="translate(126.0503,84.0356)"><path
             d="M 0,0 -2.015,0.871"
             style="fill:none;stroke:#39a461;stroke-width:1.10000002;stroke-linecap:round;stroke-linejoin:round;stroke-miterlimit:2.61299992;stroke-dasharray:none;stroke-opacity:1"
             id="path3223"
             inkscape:connector-curvature="0" /></g><g
           id="g3225"
           transform="translate(145.7227,102.6167)"><path
             d="M 0,0 -0.407,2.221"
             style="fill:none;stroke:#39a461;stroke-width:1.10000002;stroke-linecap:round;stroke-linejoin:round;stroke-miterlimit:2.61299992;stroke-dasharray:none;stroke-opacity:1"
             id="path3227"
             inkscape:connector-curvature="0" /></g><g
           id="g3229"
           transform="translate(154.4258,106.6055)"><path
             d="M 0,0 0.258,2.193"
             style="fill:none;stroke:#39a461;stroke-width:1.10000002;stroke-linecap:round;stroke-linejoin:round;stroke-miterlimit:2.61299992;stroke-dasharray:none;stroke-opacity:1"
             id="path3231"
             inkscape:connector-curvature="0" /></g><g
           id="g3233"
           transform="translate(133.936,103.9619)"><path
             d="M 0,0 -1.024,1.995"
             style="fill:none;stroke:#39a461;stroke-width:1.10000002;stroke-linecap:round;stroke-linejoin:round;stroke-miterlimit:2.61299992;stroke-dasharray:none;stroke-opacity:1"
             id="path3235"
             inkscape:connector-curvature="0" /></g><g
           id="g3237"
           transform="translate(153.8662,111.209)"><path
             d="M 0,0 0.364,2.207"
             style="fill:none;stroke:#39a461;stroke-width:1.10000002;stroke-linecap:round;stroke-linejoin:round;stroke-miterlimit:2.61299992;stroke-dasharray:none;stroke-opacity:1"
             id="path3239"
             inkscape:connector-curvature="0" /></g><g
           id="g3241"
           transform="translate(175.2314,103.2627)"><path
             d="M 0,0 1.656,1.529"
             style="fill:none;stroke:#39a461;stroke-width:1.10000002;stroke-linecap:round;stroke-linejoin:round;stroke-miterlimit:2.61299992;stroke-dasharray:none;stroke-opacity:1"
             id="path3243"
             inkscape:connector-curvature="0" /></g><g
           id="g3245"
           transform="translate(165.6338,112.3271)"><path
             d="M 0,0 0.809,2.065"
             style="fill:none;stroke:#39a461;stroke-width:1.10000002;stroke-linecap:round;stroke-linejoin:round;stroke-miterlimit:2.61299992;stroke-dasharray:none;stroke-opacity:1"
             id="path3247"
             inkscape:connector-curvature="0" /></g><g
           id="g3249"
           transform="translate(144.0239,115.9023)"><path
             d="M 0,0 -0.337,2.225"
             style="fill:none;stroke:#39a461;stroke-width:1.10000002;stroke-linecap:round;stroke-linejoin:round;stroke-miterlimit:2.61299992;stroke-dasharray:none;stroke-opacity:1"
             id="path3251"
             inkscape:connector-curvature="0" /></g><g
           id="g3253"
           transform="translate(134.3452,111.4131)"><path
             d="M 0,0 -0.891,2.032"
             style="fill:none;stroke:#39a461;stroke-width:1.10000002;stroke-linecap:round;stroke-linejoin:round;stroke-miterlimit:2.61299992;stroke-dasharray:none;stroke-opacity:1"
             id="path3255"
             inkscape:connector-curvature="0" /></g><g
           id="g3257"
           transform="translate(118.2988,103.6685)"><path
             d="M 0,0 -1.657,1.489"
             style="fill:none;stroke:#39a461;stroke-width:1.10000002;stroke-linecap:round;stroke-linejoin:round;stroke-miterlimit:2.61299992;stroke-dasharray:none;stroke-opacity:1"
             id="path3259"
             inkscape:connector-curvature="0" /></g><g
           id="g3261"
           transform="translate(104.7959,82.4722)"><path
             d="M 0,0 C 1.138,6.953 3.916,13.536 8.102,19.204"
             style="fill:none;stroke:#39a461;stroke-width:1.10000002;stroke-linecap:round;stroke-linejoin:round;stroke-miterlimit:2.61299992;stroke-dasharray:none;stroke-opacity:1"
             id="path3263"
             inkscape:connector-curvature="0" /></g><g
           id="g3265"
           transform="translate(105.998,62.834)"><path
             d="m 0,0 c -1.151,3.934 -1.751,8.008 -1.784,12.105 -0.008,1.011 0.018,2.021 0.079,3.03"
             style="fill:none;stroke:#39a461;stroke-width:1.10000002;stroke-linecap:round;stroke-linejoin:round;stroke-miterlimit:2.61299992;stroke-dasharray:none;stroke-opacity:1"
             id="path3267"
             inkscape:connector-curvature="0" /></g><g
           id="g3269"
           transform="translate(113.6606,47.917)"><path
             d="M 0,0 C -2.752,3.513 -4.959,7.42 -6.545,11.591"
             style="fill:none;stroke:#39a461;stroke-width:1.10000002;stroke-linecap:round;stroke-linejoin:round;stroke-miterlimit:2.61299992;stroke-dasharray:none;stroke-opacity:1"
             id="path3271"
             inkscape:connector-curvature="0" /></g><g
           id="g3273"
           transform="translate(126.6216,36.7266)"><path
             d="M 0,0 C -4.495,2.638 -7.204,4.66 -11.268,8.781"
             style="fill:none;stroke:#39a461;stroke-width:1.10000002;stroke-linecap:round;stroke-linejoin:round;stroke-miterlimit:2.61299992;stroke-dasharray:none;stroke-opacity:1"
             id="path3275"
             inkscape:connector-curvature="0" /></g><g
           id="g3277"
           transform="translate(111.3979,95.1353)"><path
             d="M 0,0 C 1.353,2.537 2.96,4.929 4.799,7.138"
             style="fill:none;stroke:#39a461;stroke-width:1.10000002;stroke-linecap:round;stroke-linejoin:round;stroke-miterlimit:2.61299992;stroke-dasharray:none;stroke-opacity:1"
             id="path3279"
             inkscape:connector-curvature="0" /></g><g
           id="g3281"
           transform="translate(109.1587,60.4033)"><path
             d="m 0,0 c -1.757,4.653 -2.676,9.581 -2.717,14.555 -0.019,2.423 0.17,4.843 0.566,7.233"
             style="fill:none;stroke:#39a461;stroke-width:1.10000002;stroke-linecap:round;stroke-linejoin:round;stroke-miterlimit:2.61299992;stroke-dasharray:none;stroke-opacity:1"
             id="path3283"
             inkscape:connector-curvature="0" /></g><g
           id="g3285"
           transform="translate(127.6353,38.7139)"><path
             d="M 0,0 C -6.802,3.9 -12.382,9.619 -16.114,16.516"
             style="fill:none;stroke:#39a461;stroke-width:1.10000002;stroke-linecap:round;stroke-linejoin:round;stroke-miterlimit:2.61299992;stroke-dasharray:none;stroke-opacity:1"
             id="path3287"
             inkscape:connector-curvature="0" /></g><g
           id="g3289"
           transform="translate(111.2539,89.4341)"><path
             d="M 0,0 C 0.578,1.527 1.249,3.017 2.009,4.462"
             style="fill:none;stroke:#39a461;stroke-width:1.10000002;stroke-linecap:round;stroke-linejoin:round;stroke-miterlimit:2.61299992;stroke-dasharray:none;stroke-opacity:1"
             id="path3291"
             inkscape:connector-curvature="0" /></g><g
           id="g3293"
           transform="translate(115.9795,52.2637)"><path
             d="m 0,0 c -4.693,6.649 -7.244,14.573 -7.309,22.712 -0.028,3.489 0.4,6.966 1.276,10.343"
             style="fill:none;stroke:#39a461;stroke-width:1.10000002;stroke-linecap:round;stroke-linejoin:round;stroke-miterlimit:2.61299992;stroke-dasharray:none;stroke-opacity:1"
             id="path3295"
             inkscape:connector-curvature="0" /></g><g
           id="g3297"
           transform="translate(111.1245,71.1602)"><path
             d="M 0,0 C -0.141,1.273 -0.216,2.553 -0.227,3.833 -0.228,3.973 -0.228,4.111 -0.228,4.25"
             style="fill:none;stroke:#39a461;stroke-width:1.10000002;stroke-linecap:round;stroke-linejoin:round;stroke-miterlimit:2.61299992;stroke-dasharray:none;stroke-opacity:1"
             id="path3299"
             inkscape:connector-curvature="0" /></g><g
           id="g3301"
           transform="translate(129.9629,42.5176)"><path
             d="M 0,0 C -7.621,4.337 -13.681,11.298 -16.81,19.932 M 19.441,-4.926 c -0.163,-0.003 -0.326,-0.006 -0.488,-0.007 -1.932,-0.015 -3.838,0.118 -5.708,0.388"
             style="fill:none;stroke:#39a461;stroke-width:1.10000002;stroke-linecap:round;stroke-linejoin:round;stroke-miterlimit:2.61299992;stroke-dasharray:none;stroke-opacity:1"
             id="path3303"
             inkscape:connector-curvature="0" /></g><g
           id="g3305"
           transform="translate(112.6821,77.1108)"><path
             d="M 0,0 C 0.718,7.946 4.093,15.417 9.58,21.21"
             style="fill:none;stroke:#39a461;stroke-width:1.10000002;stroke-linecap:round;stroke-linejoin:round;stroke-miterlimit:2.61299992;stroke-dasharray:none;stroke-opacity:1"
             id="path3307"
             inkscape:connector-curvature="0" /></g><g
           id="g3309"
           transform="translate(121.6211,52.2588)"><path
             d="M 0,0 C -4.874,5.71 -7.811,12.817 -8.39,20.302"
             style="fill:none;stroke:#39a461;stroke-width:1.10000002;stroke-linecap:round;stroke-linejoin:round;stroke-miterlimit:2.61299992;stroke-dasharray:none;stroke-opacity:1"
             id="path3311"
             inkscape:connector-curvature="0" /></g><g
           id="g3313"
           transform="translate(115.4419,72.8735)"><path
             d="M 0,0 C -0.052,0.718 -0.082,1.437 -0.087,2.156 -0.127,7.081 0.928,11.953 3,16.42"
             style="fill:none;stroke:#39a461;stroke-width:1.10000002;stroke-linecap:round;stroke-linejoin:round;stroke-miterlimit:2.61299992;stroke-dasharray:none;stroke-opacity:1"
             id="path3315"
             inkscape:connector-curvature="0" /></g><g
           id="g3317"
           transform="translate(120.5757,57.4072)"><path
             d="M 0,0 C -2.143,3.357 -3.666,7.074 -4.494,10.97"
             style="fill:none;stroke:#39a461;stroke-width:1.10000002;stroke-linecap:round;stroke-linejoin:round;stroke-miterlimit:2.61299992;stroke-dasharray:none;stroke-opacity:1"
             id="path3319"
             inkscape:connector-curvature="0" /></g><g
           id="g3321"
           transform="translate(133.8252,45.5078)"><path
             d="M 0,0 C -4.045,2.008 -7.64,4.818 -10.563,8.261"
             style="fill:none;stroke:#39a461;stroke-width:1.10000002;stroke-linecap:round;stroke-linejoin:round;stroke-miterlimit:2.61299992;stroke-dasharray:none;stroke-opacity:1"
             id="path3323"
             inkscape:connector-curvature="0" /></g><g
           id="g3325"
           transform="translate(149.1631,44.2734)"><path
             d="m 0,0 c -0.101,-0.002 -0.201,-0.004 -0.302,-0.004 -17.136,-0.139 -31.14,13.642 -31.279,30.778 -0.005,0.755 0.016,1.507 0.064,2.256"
             style="fill:none;stroke:#39a461;stroke-width:1.10000002;stroke-linecap:round;stroke-linejoin:round;stroke-miterlimit:2.61299992;stroke-dasharray:none;stroke-opacity:1"
             id="path3327"
             inkscape:connector-curvature="0" /></g><g
           id="g3329"
           transform="translate(121.5298,65.4941)"><path
             d="m 0,0 c -1.111,3.07 -1.692,6.307 -1.719,9.571 -0.023,2.837 0.373,5.662 1.177,8.383"
             style="fill:none;stroke:#39a461;stroke-width:1.10000002;stroke-linecap:round;stroke-linejoin:round;stroke-miterlimit:2.61299992;stroke-dasharray:none;stroke-opacity:1"
             id="path3331"
             inkscape:connector-curvature="0" /></g><g
           id="g3333"
           transform="translate(128.6924,57.709)"><path
             d="M 0,0 C -4.239,4.801 -6.602,10.971 -6.653,17.375"
             style="fill:none;stroke:#39a461;stroke-width:1.10000002;stroke-linecap:round;stroke-linejoin:round;stroke-miterlimit:2.61299992;stroke-dasharray:none;stroke-opacity:1"
             id="path3335"
             inkscape:connector-curvature="0" /></g><g
           id="g3337"
           transform="translate(144.2437,49.0859)"><path
             d="M 0,0 C -4.578,0.763 -8.875,2.711 -12.465,5.65"
             style="fill:none;stroke:#39a461;stroke-width:1.10000002;stroke-linecap:round;stroke-linejoin:round;stroke-miterlimit:2.61299992;stroke-dasharray:none;stroke-opacity:1"
             id="path3339"
             inkscape:connector-curvature="0" /></g><g
           id="g3341"
           transform="translate(144.5835,51.2881)"><path
             d="m 0,0 c -11.654,1.956 -20.221,11.997 -20.316,23.813 -0.006,0.696 0.019,1.392 0.072,2.085"
             style="fill:none;stroke:#39a461;stroke-width:1.10000002;stroke-linecap:round;stroke-linejoin:round;stroke-miterlimit:2.61299992;stroke-dasharray:none;stroke-opacity:1"
             id="path3343"
             inkscape:connector-curvature="0" /></g><g
           id="g3345"
           transform="translate(144.5815,51.2969)"><path
             d="M 0,0 -0.319,-2.171"
             style="fill:none;stroke:#39a461;stroke-width:1.10000002;stroke-linecap:round;stroke-linejoin:round;stroke-miterlimit:2.61299992;stroke-dasharray:none;stroke-opacity:1"
             id="path3347"
             inkscape:connector-curvature="0" /></g><g
           id="g3349"
           transform="translate(121.5425,65.4902)"><path
             d="M 0,0 -2.041,-0.968"
             style="fill:none;stroke:#39a461;stroke-width:1.10000002;stroke-linecap:round;stroke-linejoin:round;stroke-miterlimit:2.61299992;stroke-dasharray:none;stroke-opacity:1"
             id="path3351"
             inkscape:connector-curvature="0" /></g><g
           id="g3353"
           transform="translate(115.4375,72.8647)"><path
             d="M 0,0 -2.186,-0.319"
             style="fill:none;stroke:#39a461;stroke-width:1.10000002;stroke-linecap:round;stroke-linejoin:round;stroke-miterlimit:2.61299992;stroke-dasharray:none;stroke-opacity:1"
             id="path3355"
             inkscape:connector-curvature="0" /></g><g
           id="g3357"
           transform="translate(123.2939,53.7568)"><path
             d="M 0,0 -1.662,-1.506"
             style="fill:none;stroke:#39a461;stroke-width:1.10000002;stroke-linecap:round;stroke-linejoin:round;stroke-miterlimit:2.61299992;stroke-dasharray:none;stroke-opacity:1"
             id="path3359"
             inkscape:connector-curvature="0" /></g><g
           id="g3361"
           transform="translate(111.1353,71.1323)"><path
             d="M 0,0 -2.226,-0.219"
             style="fill:none;stroke:#39a461;stroke-width:1.10000002;stroke-linecap:round;stroke-linejoin:round;stroke-miterlimit:2.61299992;stroke-dasharray:none;stroke-opacity:1"
             id="path3363"
             inkscape:connector-curvature="0" /></g><g
           id="g3365"
           transform="translate(113.2813,93.8257)"><path
             d="M 0,0 -1.906,1.205"
             style="fill:none;stroke:#39a461;stroke-width:1.10000002;stroke-linecap:round;stroke-linejoin:round;stroke-miterlimit:2.61299992;stroke-dasharray:none;stroke-opacity:1"
             id="path3367"
             inkscape:connector-curvature="0" /></g><g
           id="g3369"
           transform="translate(107.0103,82.2095)"><path
             d="M 0,0 -2.205,0.247"
             style="fill:none;stroke:#39a461;stroke-width:1.10000002;stroke-linecap:round;stroke-linejoin:round;stroke-miterlimit:2.61299992;stroke-dasharray:none;stroke-opacity:1"
             id="path3371"
             inkscape:connector-curvature="0" /></g><g
           id="g3373"
           transform="translate(109.1494,60.4111)"><path
             d="M 0,0 -2.062,-0.901"
             style="fill:none;stroke:#39a461;stroke-width:1.10000002;stroke-linecap:round;stroke-linejoin:round;stroke-miterlimit:2.61299992;stroke-dasharray:none;stroke-opacity:1"
             id="path3375"
             inkscape:connector-curvature="0" /></g><g
           id="g3377"
           transform="translate(115.9907,52.2236)"><path
             d="M 0,0 -1.733,-1.387"
             style="fill:none;stroke:#39a461;stroke-width:1.10000002;stroke-linecap:round;stroke-linejoin:round;stroke-miterlimit:2.61299992;stroke-dasharray:none;stroke-opacity:1"
             id="path3379"
             inkscape:connector-curvature="0" /></g><g
           id="g3381"
           transform="translate(127.6245,38.7285)"><path
             d="M 0,0 -1.009,-1.986"
             style="fill:none;stroke:#39a461;stroke-width:1.10000002;stroke-linecap:round;stroke-linejoin:round;stroke-miterlimit:2.61299992;stroke-dasharray:none;stroke-opacity:1"
             id="path3383"
             inkscape:connector-curvature="0" /></g><g
           id="g3385"
           transform="translate(181.2949,84.2197)"><path
             d="m 0,0 c -9.24,8.698 -17.804,24.19 -17.804,24.19 -7.838,5.979 -15.867,7.761 -15.867,7.761 V 31.95 c -0.009,-0.002 -8.035,-1.784 -15.867,-7.76 0,0 -8.563,-15.492 -17.804,-24.19 0,0 20.232,-34.064 33.671,-34.427 0.81,0.023 1.645,0.167 2.498,0.418 0.73,0.215 1.473,0.51 2.226,0.873 C -15.961,-26.874 0,0 0,0"
             style="fill:#201f1e;fill-opacity:1;fill-rule:evenodd;stroke:none"
             id="path3387"
             inkscape:connector-curvature="0" /></g><g
           id="g3389"
           transform="translate(147.2617,113.2124)"><path
             d="M 0,0 -2.264,-3.503 0,-2.719 c 0,0 3.172,-1.208 4.018,-3.563 0,0 -2.781,2.054 -4.018,1.873 -1.237,-0.181 -4.076,-2.175 -5.345,-5.074 L 0,-6.644 c 0,0 6.312,-2.839 10.117,-8.395 0,0 -7.37,5.858 -10.117,5.858 -2.748,0 -9.452,-5.013 -11.203,-6.945 0,0 1.932,0.483 3.14,0.241 0,0 -7.308,-7.55 -13.408,-18.301 0,0 9.179,-18.421 21.471,-26.092 0,0 -19.236,11.657 -28.538,31.528 0,0 5.739,6.463 14.979,21.502 0,0 8.817,6.705 13.559,7.248"
             style="fill:#ee383a;fill-opacity:1;fill-rule:evenodd;stroke:none"
             id="path3391"
             inkscape:connector-curvature="0" /></g><g
           id="g3393"
           transform="translate(161.1543,104.9683)"><path
             d="m 0,0 c 0,0 8.516,-14.134 14.495,-20.475 0,0 -5.435,-9.966 -7.882,-12.231 0,0 5.097,10.105 5.707,12.05 0,0 -7.338,8.154 -12.32,20.656"
             style="fill:#ee383a;fill-opacity:1;fill-rule:evenodd;stroke:none"
             id="path3395"
             inkscape:connector-curvature="0" /></g><g
           id="g3397"
           transform="translate(152.957,85.2666)"><path
             d="M 0,0 V 0 C -1.107,0 -1.613,-1.381 -0.768,-2.096 L 1.63,-4.123 c 0.549,-0.463 0.563,-1.305 0.031,-1.788 l -6.557,-5.948 c -0.455,-0.412 -1.145,-0.412 -1.598,0 l -6.558,5.948 c -0.532,0.483 -0.518,1.325 0.031,1.788 l 2.397,2.027 C -9.777,-1.381 -10.283,0 -11.391,0 c -0.274,0 -0.539,-0.095 -0.752,-0.268 l -4.529,-3.697 c -0.559,-0.455 -0.587,-1.3 -0.059,-1.791 l 10.225,-9.521 c 0.457,-0.425 1.164,-0.425 1.62,0 l 10.227,9.521 c 0.527,0.491 0.5,1.336 -0.059,1.791 L 0.751,-0.268 C 0.539,-0.095 0.273,0 0,0"
             style="fill:#edeff0;fill-opacity:1;fill-rule:evenodd;stroke:none"
             id="path3399"
             inkscape:connector-curvature="0" /></g><g
           id="g3401"
           transform="translate(148.002,80.8071)"><path
             d="M 0,0 V 0 C -0.383,-0.468 -1.099,-0.468 -1.481,0 -1.62,0.171 -1.696,0.385 -1.696,0.606 v 9.859 c 0,0.258 0.103,0.504 0.287,0.684 0.372,0.364 0.966,0.364 1.337,0 0.184,-0.18 0.288,-0.426 0.288,-0.684 V 0.606 C 0.216,0.385 0.14,0.171 0,0"
             style="fill:#edeff0;fill-opacity:1;fill-rule:evenodd;stroke:none"
             id="path3403"
             inkscape:connector-curvature="0" /></g><g
           id="g3405"
           transform="translate(152.1641,62.5869)"><path
             d="m 0,0 c -1.207,-1.496 -4.456,-2.055 -4.54,-2.069 -0.084,0.014 -3.333,0.573 -4.541,2.069 0,0 1.883,-3.099 4.537,-3.215 v -0.001 h 0.004 0.004 v 0.001 C -1.882,-3.099 0,0 0,0"
             style="fill:#edeff0;fill-opacity:1;fill-rule:evenodd;stroke:none"
             id="path3407"
             inkscape:connector-curvature="0" /></g><g
           id="g3409"
           transform="translate(167.8555,51.3076)"><path
             d="m 0,0 c 1.08,0.725 2.347,1.133 3.655,1.326 2.799,0.412 6.266,0.345 9.101,0.345 2.208,0 4.706,0.015 6.893,-0.289 2.055,-0.285 4.266,-0.927 5.694,-2.527 1.438,-1.612 1.796,-3.874 1.796,-5.96 v -0.988 -2.834 h -0.126 c 0.074,-0.154 0.143,-0.311 0.207,-0.473 0.548,-1.39 0.675,-3.027 0.675,-4.509 0,-1.918 -0.207,-4.092 -1.158,-5.796 -0.675,-1.209 -1.66,-2.149 -2.906,-2.754 -1.221,-0.592 -2.644,-0.857 -3.986,-0.981 -2.583,-0.238 -5.401,-0.196 -7.997,-0.196 -2.391,0 -4.925,0.007 -7.302,0.264 -1.498,0.161 -3.136,0.478 -4.467,1.213 l -0.054,0.03 c -0.008,0.004 -0.016,0.01 -0.025,0.015 v -1.206 h -12.378 v 2.353 c -0.992,-0.861 -2.219,-1.462 -3.638,-1.777 -1.1,-0.244 -2.22,-0.397 -3.345,-0.471 -1.738,-0.114 -3.534,-0.105 -5.274,-0.105 h -17.994 v 1.964 c -1.073,-0.906 -2.379,-1.465 -3.767,-1.772 -2.156,-0.476 -4.786,-0.508 -6.99,-0.508 -2.599,0 -5.798,0.037 -8.331,0.646 -2.925,0.703 -4.933,2.656 -5.564,5.613 -0.259,1.216 -0.324,2.522 -0.324,3.763 0,0.755 0.014,1.51 0.032,2.265 l 0.064,2.769 h 12.003 v -2.835 c 0,-0.3 -0.007,-0.676 10e-4,-1.043 0.59,-0.055 1.295,-0.06 1.652,-0.06 0.419,0 1.309,0.007 1.996,0.087 0.002,0.188 -10e-4,0.369 -10e-4,0.522 V 1.356 h 27.208 c 1.785,0 3.63,0.024 5.413,-0.066 1.016,-0.052 2.027,-0.186 3.023,-0.391 1.301,-0.265 2.452,-0.76 3.419,-1.471 0.228,-0.168 0.212,0.02 0.26,0.014 0.054,-0.006 0.157,-0.183 0.157,0.154 v 1.76 L 0,1.356 Z"
             style="fill:#201f1e;fill-opacity:1;fill-rule:evenodd;stroke:none"
             id="path3411"
             inkscape:connector-curvature="0" /></g><g
           id="g3413"
           transform="translate(167.2305,35.7822)"><path
             d="m 0,0 h 6.194 c -0.01,-1.045 0.2,-1.722 0.63,-2.021 0.31,-0.2 0.703,-0.315 1.192,-0.352 0.488,-0.036 2.021,-0.063 4.598,-0.084 2.703,0.011 4.325,0.026 4.871,0.053 0.541,0.026 0.972,0.105 1.286,0.241 0.473,0.194 0.709,0.725 0.709,1.586 0,0.624 -0.168,1.044 -0.499,1.255 -0.335,0.209 -1.012,0.324 -2.037,0.345 -0.787,0 -2.462,0.064 -5.012,0.184 C 9.317,1.333 7.617,1.401 6.829,1.423 5.292,1.475 4.11,1.622 3.286,1.863 2.462,2.105 1.816,2.499 1.354,3.039 0.567,3.947 0.173,5.454 0.173,7.569 c 0,2.373 0.452,4.047 1.354,5.024 0.688,0.756 1.744,1.244 3.166,1.454 1.428,0.21 4.32,0.315 8.688,0.315 3.086,0 5.254,-0.09 6.504,-0.262 1.926,-0.268 3.249,-0.804 3.968,-1.607 0.719,-0.808 1.076,-2.168 1.076,-4.073 V 7.433 h -6.2 C 18.708,8.021 18.661,8.42 18.583,8.635 18.509,8.85 18.356,9.023 18.131,9.16 17.853,9.322 17.365,9.428 16.667,9.475 15.974,9.522 14.493,9.543 12.236,9.543 9.522,9.543 7.863,9.459 7.271,9.291 6.678,9.118 6.378,8.65 6.378,7.879 c 0,-0.734 0.3,-1.186 0.893,-1.355 0.493,-0.13 2.75,-0.256 6.776,-0.382 3.391,-0.1 5.659,-0.221 6.804,-0.363 1.144,-0.135 2.051,-0.398 2.729,-0.792 0.766,-0.462 1.313,-1.091 1.627,-1.901 0.32,-0.803 0.478,-1.957 0.478,-3.47 0,-1.978 -0.268,-3.448 -0.798,-4.414 -0.405,-0.709 -0.955,-1.238 -1.669,-1.585 -0.714,-0.346 -1.717,-0.583 -3.008,-0.709 -1.386,-0.12 -3.964,-0.183 -7.737,-0.183 -3.156,0 -5.492,0.084 -6.998,0.247 -1.506,0.162 -2.64,0.456 -3.402,0.876 -0.787,0.457 -1.333,1.049 -1.637,1.79 -0.299,0.74 -0.452,1.863 -0.452,3.375 z M -8.918,14.047 H -2.21 V -6.961 H -8.918 Z M -32.871,-1.606 h 8.903 c 1.643,0 2.851,0.052 3.622,0.163 0.777,0.104 1.323,0.294 1.638,0.561 0.352,0.294 0.599,0.767 0.74,1.412 0.142,0.646 0.215,1.622 0.215,2.924 0,1.302 -0.062,2.278 -0.184,2.934 -0.125,0.657 -0.34,1.161 -0.645,1.507 -0.352,0.377 -0.855,0.625 -1.517,0.73 -0.662,0.109 -1.968,0.162 -3.926,0.162 h -8.846 z m -6.299,-5.355 v 21.008 h 15.145 c 2.681,0 4.44,-0.021 5.269,-0.063 0.83,-0.042 1.696,-0.152 2.599,-0.336 2.099,-0.43 3.469,-1.623 4.105,-3.57 0.237,-0.739 0.394,-1.532 0.478,-2.378 0.078,-0.849 0.12,-2.126 0.12,-3.842 0,-1.879 -0.047,-3.296 -0.147,-4.262 -0.094,-0.966 -0.278,-1.842 -0.545,-2.63 -0.625,-1.848 -1.912,-2.987 -3.859,-3.417 -0.913,-0.205 -1.885,-0.341 -2.919,-0.409 -1.033,-0.069 -2.729,-0.101 -5.086,-0.101 z m -9.228,21.008 h 6.394 V 1.48 c 0,-1.978 -0.095,-3.438 -0.284,-4.373 -0.189,-0.928 -0.551,-1.706 -1.087,-2.32 -0.682,-0.792 -1.69,-1.333 -3.008,-1.621 -1.323,-0.295 -3.449,-0.441 -6.378,-0.441 -3.532,0 -6.088,0.188 -7.669,0.566 -1.915,0.462 -3.065,1.611 -3.454,3.449 -0.173,0.793 -0.262,1.848 -0.262,3.171 0,0.571 0.011,1.307 0.031,2.199 h 6.4 c 0,-1.155 0.031,-1.926 0.099,-2.325 0.063,-0.394 0.205,-0.698 0.42,-0.919 0.483,-0.462 1.806,-0.692 3.968,-0.692 2.279,0 3.691,0.235 4.247,0.708 0.236,0.21 0.389,0.488 0.467,0.835 0.079,0.351 0.116,0.986 0.116,1.899 z"
             style="fill:#ee383a;fill-opacity:1;fill-rule:evenodd;stroke:none"
             id="path3415"
             inkscape:connector-curvature="0" /></g></g></g></g></svg>